<svg width="28" height="28" viewBox="0 0 28 28" fill="none" xmlns="http://www.w3.org/2000/svg">
<path d="M12.6667 20.6667H15.3333V15.3334H20.6667V12.6667H15.3333V7.33341H12.6667V12.6667H7.33332V15.3334H12.6667V20.6667ZM14 27.3334C12.1555 27.3334 10.4222 26.9834 8.79999 26.2834C7.17777 25.5834 5.76666 24.6334 4.56666 23.4334C3.36666 22.2334 2.41666 20.8223 1.71666 19.2001C1.01666 17.5779 0.666656 15.8445 0.666656 14.0001C0.666656 12.1556 1.01666 10.4223 1.71666 8.80008C2.41666 7.17786 3.36666 5.76675 4.56666 4.56675C5.76666 3.36675 7.17777 2.41675 8.79999 1.71675C10.4222 1.01675 12.1555 0.666748 14 0.666748C15.8444 0.666748 17.5778 1.01675 19.2 1.71675C20.8222 2.41675 22.2333 3.36675 23.4333 4.56675C24.6333 5.76675 25.5833 7.17786 26.2833 8.80008C26.9833 10.4223 27.3333 12.1556 27.3333 14.0001C27.3333 15.8445 26.9833 17.5779 26.2833 19.2001C25.5833 20.8223 24.6333 22.2334 23.4333 23.4334C22.2333 24.6334 20.8222 25.5834 19.2 26.2834C17.5778 26.9834 15.8444 27.3334 14 27.3334ZM14 24.6667C16.9778 24.6667 19.5 23.6334 21.5667 21.5667C23.6333 19.5001 24.6667 16.9779 24.6667 14.0001C24.6667 11.0223 23.6333 8.50008 21.5667 6.43341C19.5 4.36675 16.9778 3.33341 14 3.33341C11.0222 3.33341 8.49999 4.36675 6.43332 6.43341C4.36666 8.50008 3.33332 11.0223 3.33332 14.0001C3.33332 16.9779 4.36666 19.5001 6.43332 21.5667C8.49999 23.6334 11.0222 24.6667 14 24.6667Z" fill="#EFB8C8"/>
</svg>
