<?xml version="1.0" encoding="utf-8"?>
<!-- Generator: Adobe Illustrator 24.3.0, SVG Export Plug-In . SVG Version: 6.00 Build 0)  -->
<svg version="1.1" id="katman_1" xmlns="http://www.w3.org/2000/svg" xmlns:xlink="http://www.w3.org/1999/xlink" x="0px" y="0px"
	 viewBox="0 0 20.4 20.4" style="enable-background:new 0 0 20.4 20.4;" xml:space="preserve">
<style type="text/css">
	.st0{fill:#EFB8C8;}
</style>
<path class="st0" d="M9.1,15.3h2.2V9.2H9.1C9.1,9.2,9.1,15.3,9.1,15.3z M10.2,7.3c0.3,0,0.6-0.1,0.8-0.3c0.2-0.2,0.3-0.5,0.3-0.8
	c0-0.3-0.1-0.6-0.3-0.8c-0.2-0.2-0.5-0.3-0.8-0.3c-0.3,0-0.6,0.1-0.8,0.3C9.2,5.6,9.1,5.9,9.1,6.2S9.2,6.8,9.4,7
	C9.6,7.2,9.9,7.3,10.2,7.3z M10.2,20.4c-1.4,0-2.7-0.3-4-0.8C5,19.1,3.9,18.3,3,17.4c-0.9-0.9-1.6-2-2.2-3.2S0,11.6,0,10.2
	s0.3-2.7,0.8-4S2.1,3.9,3,3c0.9-0.9,2-1.6,3.2-2.2S8.8,0,10.2,0c1.4,0,2.7,0.3,4,0.8s2.3,1.3,3.2,2.2c0.9,0.9,1.6,2,2.2,3.2
	c0.5,1.2,0.8,2.6,0.8,4c0,1.4-0.3,2.7-0.8,4c-0.5,1.2-1.3,2.3-2.2,3.2c-0.9,0.9-2,1.6-3.2,2.2C12.9,20.1,11.6,20.4,10.2,20.4z
	 M10.2,18.1c2.2,0,4.1-0.8,5.6-2.3c1.5-1.5,2.3-3.4,2.3-5.6c0-2.2-0.8-4.1-2.3-5.6c-1.5-1.5-3.4-2.3-5.6-2.3C8,2.3,6.1,3,4.6,4.6
	C3,6.1,2.3,8,2.3,10.2s0.8,4.1,2.3,5.6C6.1,17.4,8,18.1,10.2,18.1z"/>
</svg>
