<svg width="28" height="28" viewBox="0 0 28 28" fill="none" xmlns="http://www.w3.org/2000/svg">
<path d="M12.6667 15.3332H15.3333H20.6667V12.6665H15.3333H14H12.6667H7.33332V15.3332H12.6667ZM14 27.3332C12.1555 27.3332 10.4222 26.9832 8.79999 26.2832C7.17777 25.5832 5.76666 24.6332 4.56666 23.4332C3.36666 22.2332 2.41666 20.8221 1.71666 19.1998C1.01666 17.5776 0.666656 15.8443 0.666656 13.9998C0.666656 12.1554 1.01666 10.4221 1.71666 8.79984C2.41666 7.17761 3.36666 5.7665 4.56666 4.5665C5.76666 3.3665 7.17777 2.4165 8.79999 1.7165C10.4222 1.0165 12.1555 0.666504 14 0.666504C15.8444 0.666504 17.5778 1.0165 19.2 1.7165C20.8222 2.4165 22.2333 3.3665 23.4333 4.5665C24.6333 5.7665 25.5833 7.17761 26.2833 8.79984C26.9833 10.4221 27.3333 12.1554 27.3333 13.9998C27.3333 15.8443 26.9833 17.5776 26.2833 19.1998C25.5833 20.8221 24.6333 22.2332 23.4333 23.4332C22.2333 24.6332 20.8222 25.5832 19.2 26.2832C17.5778 26.9832 15.8444 27.3332 14 27.3332ZM14 24.6665C16.9778 24.6665 19.5 23.6332 21.5667 21.5665C23.6333 19.4998 24.6667 16.9776 24.6667 13.9998C24.6667 11.0221 23.6333 8.49984 21.5667 6.43317C19.5 4.3665 16.9778 3.33317 14 3.33317C11.0222 3.33317 8.49999 4.3665 6.43332 6.43317C4.36666 8.49984 3.33332 11.0221 3.33332 13.9998C3.33332 16.9776 4.36666 19.4998 6.43332 21.5665C8.49999 23.6332 11.0222 24.6665 14 24.6665Z" fill="#EFB8C8"/>
</svg>
