<svg width="44" height="40" viewBox="0 0 44 40" fill="none" xmlns="http://www.w3.org/2000/svg">
<path d="M41.5542 17.9417V35.1667C41.5542 36.3583 41.1299 37.3785 40.2812 38.2271C39.4326 39.0757 38.4125 39.5 37.2208 39.5H6.8875C5.69583 39.5 4.67569 39.0757 3.82708 38.2271C2.97847 37.3785 2.55416 36.3583 2.55416 35.1667V17.9417C1.72361 17.1833 1.08264 16.2083 0.631248 15.0167C0.179859 13.825 0.170831 12.525 0.604164 11.1167L2.87916 3.75C3.16805 2.81111 3.68264 2.03472 4.42291 1.42083C5.16319 0.806944 6.02083 0.5 6.99583 0.5H37.1125C38.0875 0.5 38.9361 0.797917 39.6583 1.39375C40.3806 1.98958 40.9042 2.775 41.2292 3.75L43.5042 11.1167C43.9375 12.525 43.9285 13.8069 43.4771 14.9625C43.0257 16.1181 42.3847 17.1111 41.5542 17.9417ZM26.8208 15.6667C27.7958 15.6667 28.5361 15.3326 29.0417 14.6646C29.5472 13.9965 29.7458 13.2472 29.6375 12.4167L28.4458 4.83333H24.2208V12.85C24.2208 13.6083 24.4736 14.2674 24.9792 14.8271C25.4847 15.3868 26.0986 15.6667 26.8208 15.6667ZM17.0708 15.6667C17.9014 15.6667 18.5785 15.3868 19.1021 14.8271C19.6257 14.2674 19.8875 13.6083 19.8875 12.85V4.83333H15.6625L14.4708 12.4167C14.3264 13.2833 14.516 14.0417 15.0396 14.6917C15.5632 15.3417 16.2403 15.6667 17.0708 15.6667ZM7.42916 15.6667C8.07916 15.6667 8.64791 15.4319 9.13541 14.9625C9.62291 14.4931 9.92083 13.8972 10.0292 13.175L11.2208 4.83333H6.99583L4.82916 12.0917C4.6125 12.8139 4.72986 13.5903 5.18125 14.4208C5.63264 15.2514 6.38194 15.6667 7.42916 15.6667ZM36.6792 15.6667C37.7264 15.6667 38.4847 15.2514 38.9542 14.4208C39.4236 13.5903 39.5319 12.8139 39.2792 12.0917L37.0042 4.83333H32.8875L34.0792 13.175C34.1875 13.8972 34.4854 14.4931 34.9729 14.9625C35.4604 15.4319 36.0292 15.6667 36.6792 15.6667ZM6.8875 35.1667H37.2208V19.8917C37.0403 19.9639 36.9229 20 36.8687 20H36.6792C35.7042 20 34.8465 19.8375 34.1062 19.5125C33.366 19.1875 32.6347 18.6639 31.9125 17.9417C31.2625 18.5917 30.5222 19.0972 29.6917 19.4583C28.8611 19.8194 27.9764 20 27.0375 20C26.0625 20 25.1507 19.8194 24.3021 19.4583C23.4535 19.0972 22.7042 18.5917 22.0542 17.9417C21.4403 18.5917 20.7271 19.0972 19.9146 19.4583C19.1021 19.8194 18.2264 20 17.2875 20C16.2403 20 15.2924 19.8194 14.4437 19.4583C13.5951 19.0972 12.8458 18.5917 12.1958 17.9417C11.4375 18.7 10.6882 19.2326 9.94791 19.5396C9.20764 19.8465 8.36805 20 7.42916 20H7.18541C7.09514 20 6.99583 19.9639 6.8875 19.8917V35.1667Z" fill="#EFB8C8"/>
</svg>
