<svg width="24" height="24" viewBox="0 0 24 24" fill="none" xmlns="http://www.w3.org/2000/svg">
<path d="M0.110016 23.9029L1.77543 17.9879C0.704472 16.1685 0.140604 14.0984 0.140604 11.9719C0.140604 5.42414 5.46758 0.097168 12.0153 0.097168C18.5631 0.097168 23.89 5.42414 23.89 11.9719C23.89 18.5196 18.5631 23.8466 12.0153 23.8466C9.97509 23.8466 7.97731 23.3244 6.20998 22.3327L0.110016 23.9029ZM6.52183 20.1724L6.88531 20.3943C8.42621 21.335 10.2002 21.8323 12.0153 21.8323C17.4523 21.8323 21.8756 17.4089 21.8756 11.9719C21.8756 6.53487 17.4523 2.11151 12.0153 2.11151C6.57831 2.11151 2.15495 6.53487 2.15495 11.9719C2.15495 13.8663 2.69338 15.706 3.71189 17.2921L3.95667 17.6732L2.99762 21.0796L6.52183 20.1724Z" fill="white"/>
<path d="M8.67956 6.44525L7.90904 6.40325C7.66702 6.39005 7.42962 6.47092 7.24669 6.62983C6.87314 6.95421 6.27585 7.58135 6.0924 8.39857C5.81882 9.6171 6.24161 11.1092 7.33584 12.6013C8.43008 14.0934 10.4693 16.4808 14.0752 17.5004C15.2372 17.829 16.1512 17.6075 16.8565 17.1564C17.415 16.7991 17.8001 16.2256 17.9388 15.5773L18.0619 15.0026C18.101 14.82 18.0082 14.6347 17.8386 14.5565L15.2345 13.3562C15.0654 13.2783 14.8649 13.3275 14.7513 13.4749L13.7289 14.8002C13.6517 14.9003 13.5195 14.94 13.4001 14.898C12.7 14.652 10.3549 13.6698 9.06811 11.1911C9.0123 11.0836 9.02618 10.9531 9.10533 10.8614L10.0824 9.73118C10.1822 9.61576 10.2074 9.45349 10.1474 9.31324L9.02491 6.68705C8.96515 6.54724 8.83123 6.45354 8.67956 6.44525Z" fill="white"/>
</svg>
