<svg width="109" height="54" viewBox="0 0 109 54" fill="none" xmlns="http://www.w3.org/2000/svg">
<path d="M52.513 29.48L59.633 41H55.713L48.873 29.76H45.833V41H42.433V15.08H49.793C52.5396 15.08 54.673 15.7067 56.193 16.96C57.713 18.24 58.473 20.0533 58.473 22.4C58.473 23.52 58.2596 24.52 57.833 25.4C57.433 26.3067 56.873 27.0667 56.153 27.68C55.433 28.32 54.5663 28.8133 53.553 29.16C53.233 29.2933 52.8863 29.4 52.513 29.48ZM45.833 27H49.473C50.0063 27 50.4996 26.9733 50.953 26.92C52.073 26.7333 52.9663 26.36 53.633 25.8C54.593 25.0267 55.073 23.9333 55.073 22.52C55.073 21.08 54.593 19.9733 53.633 19.2C52.673 18.4267 51.433 18.04 49.913 18.04H45.833V27ZM76.9173 18.32H64.0773V15.08H82.9973L68.3173 37.6H81.7973V41H62.2373L76.9173 18.32ZM96.2452 14.6H96.8452L107.725 41H104.165L101.965 35.64H91.1652L89.0452 41H85.4452L96.2452 14.6ZM92.4052 32.48H100.685L96.4852 22.2L92.4052 32.48Z" fill="#E6E0E9"/>
<path d="M3.58563 14.44H3.78563L15.5056 31.44L27.2256 14.44H27.4256V41H24.0256V24.64L15.5056 36.84L6.98563 24.56V41H3.58563V14.44Z" fill="#E6E0E9"/>
<path d="M37.5981 7.5L35 12L32.4019 7.5L37.5981 7.5Z" fill="#EFB8C8" stroke="#EFB8C8" stroke-width="2"/>
<path d="M37 15.1824H33V41H37V15.1824Z" fill="#E6E0E9"/>
</svg>
